<svg width="20" height="20" viewBox="0 0 20 20" fill="none" xmlns="http://www.w3.org/2000/svg">
<path d="M3.33331 4.16634C3.33331 3.94533 3.42111 3.73337 3.57739 3.57709C3.73367 3.42081 3.94563 3.33301 4.16665 3.33301H7.49998C7.72099 3.33301 7.93295 3.42081 8.08924 3.57709C8.24552 3.73337 8.33331 3.94533 8.33331 4.16634V8.33301C8.33331 8.55402 8.24552 8.76598 8.08924 8.92226C7.93295 9.07854 7.72099 9.16634 7.49998 9.16634H4.16665C3.94563 9.16634 3.73367 9.07854 3.57739 8.92226C3.42111 8.76598 3.33331 8.55402 3.33331 8.33301V4.16634ZM11.6666 4.16634C11.6666 3.94533 11.7544 3.73337 11.9107 3.57709C12.067 3.42081 12.279 3.33301 12.5 3.33301H15.8333C16.0543 3.33301 16.2663 3.42081 16.4226 3.57709C16.5788 3.73337 16.6666 3.94533 16.6666 4.16634V5.83301C16.6666 6.05402 16.5788 6.26598 16.4226 6.42226C16.2663 6.57854 16.0543 6.66634 15.8333 6.66634H12.5C12.279 6.66634 12.067 6.57854 11.9107 6.42226C11.7544 6.26598 11.6666 6.05402 11.6666 5.83301V4.16634ZM3.33331 13.333C3.33331 13.112 3.42111 12.9 3.57739 12.7438C3.73367 12.5875 3.94563 12.4997 4.16665 12.4997H7.49998C7.72099 12.4997 7.93295 12.5875 8.08924 12.7438C8.24552 12.9 8.33331 13.112 8.33331 13.333V15.833C8.33331 16.054 8.24552 16.266 8.08924 16.4223C7.93295 16.5785 7.72099 16.6663 7.49998 16.6663H4.16665C3.94563 16.6663 3.73367 16.5785 3.57739 16.4223C3.42111 16.266 3.33331 16.054 3.33331 15.833V13.333ZM11.6666 10.833C11.6666 10.612 11.7544 10.4 11.9107 10.2438C12.067 10.0875 12.279 9.99967 12.5 9.99967H15.8333C16.0543 9.99967 16.2663 10.0875 16.4226 10.2438C16.5788 10.4 16.6666 10.612 16.6666 10.833V15.833C16.6666 16.054 16.5788 16.266 16.4226 16.4223C16.2663 16.5785 16.0543 16.6663 15.8333 16.6663H12.5C12.279 16.6663 12.067 16.5785 11.9107 16.4223C11.7544 16.266 11.6666 16.054 11.6666 15.833V10.833Z" stroke="#452BA5" stroke-width="1.5"/>
</svg>
