<svg width="16" height="14" viewBox="0 0 16 14" fill="none" xmlns="http://www.w3.org/2000/svg">
<path d="M7.29289 0.500047C7.68342 0.109521 8.31658 0.109523 8.70711 0.500047L11 2.79294V1.50005C11 1.2239 11.2239 1.00005 11.5 1.00005H12.5C12.7761 1.00005 13 1.2239 13 1.50005V4.79294L15.3536 7.14649C15.5488 7.34176 15.5488 7.65834 15.3536 7.8536C15.1583 8.04886 14.8417 8.04886 14.6464 7.8536L8 1.20715L3 6.20715V12.5C3 12.7762 3.22386 13 3.5 13L7.5 13C7.77614 13 8 13.2239 8 13.5C8 13.7762 7.77614 14 7.5 14L3.5 14C2.67157 14 2 13.3285 2 12.5V7.20715L1.35355 7.8536C1.15829 8.04886 0.841709 8.04886 0.646447 7.8536C0.451184 7.65834 0.451184 7.34176 0.646447 7.14649L7.29289 0.500047Z" fill="white"/>
</svg>
